<svg width="28" height="28" viewBox="0 0 28 28" fill="none" xmlns="http://www.w3.org/2000/svg">
  <path fill-rule="evenodd" clip-rule="evenodd" d="M22.2501 22.2481C18.6846 25.814 13.4049 26.5844 9.08432 24.5863C8.44649 24.3295 7.92356 24.1219 7.42643 24.1219C6.04173 24.1301 4.31819 25.4728 3.42242 24.5781C2.52664 23.6822 3.8703 21.9573 3.8703 20.5642C3.8703 20.067 3.67098 19.5534 3.41421 18.9144C1.41513 14.5945 2.18662 9.31305 5.75213 5.74833C10.3037 1.19509 17.6985 1.19509 22.2501 5.74715C26.8098 10.3074 26.8016 17.696 22.2501 22.2481Z" stroke="#DEE4FF" stroke-width="2" stroke-linecap="round" stroke-linejoin="round"/>
  <path d="M18.5961 14.4818H18.6066" stroke="#DEE4FF" stroke-width="2.5" stroke-linecap="round" stroke-linejoin="round"/>
  <path d="M13.9189 14.4818H13.9294" stroke="#DEE4FF" stroke-width="2.5" stroke-linecap="round" stroke-linejoin="round"/>
  <path d="M9.24166 14.4818H9.25216" stroke="#DEE4FF" stroke-width="2.5" stroke-linecap="round" stroke-linejoin="round"/>
  </svg>
  