<svg width="16" height="16" viewBox="0 0 16 16" fill="none" xmlns="http://www.w3.org/2000/svg">
<g clip-path="url(#clip0_71_130)">
<path d="M8 16C12.4183 16 16 12.4183 16 8C16 3.58172 12.4183 0 8 0C3.58172 0 0 3.58172 0 8C0 12.4183 3.58172 16 8 16Z" fill="white"/>
<mask id="path-2-inside-1_71_130" fill="white">
<path fill-rule="evenodd" clip-rule="evenodd" d="M9.10827 5.0002C8.99918 5.00356 8.89568 5.04927 8.8197 5.12763C8.74372 5.20599 8.70123 5.31085 8.70123 5.42C8.70123 5.52914 8.74372 5.634 8.8197 5.71236C8.89568 5.79072 8.99918 5.83643 9.10827 5.8398C9.34027 5.8398 9.52827 5.6514 9.52827 5.4198C9.52817 5.30847 9.48387 5.20175 9.40511 5.12307C9.32636 5.04439 9.21959 5.0002 9.10827 5.0002ZM9.10827 6.6398C8.78487 6.63937 8.47485 6.51069 8.24621 6.28197C8.01757 6.05326 7.88899 5.74319 7.88867 5.4198C7.8891 5.0964 8.01778 4.78637 8.24649 4.55773C8.47521 4.3291 8.78527 4.20051 9.10867 4.2002C9.43207 4.20051 9.74214 4.3291 9.97085 4.55773C10.1996 4.78637 10.3282 5.0964 10.3287 5.4198C10.3284 5.74326 10.1997 6.05339 9.97099 6.28211C9.74227 6.51084 9.43174 6.63948 9.10827 6.6398Z"/>
</mask>
<path d="M9.10827 5.0002L9.10827 4.0002L9.09284 4.0002L9.07741 4.00067L9.10827 5.0002ZM8.70123 5.42L7.70123 5.42L8.70123 5.42ZM9.10827 5.8398L9.07741 6.83932L9.09284 6.8398H9.10827V5.8398ZM9.52827 5.4198L10.5283 5.4198L10.5283 5.41884L9.52827 5.4198ZM9.10827 6.6398L9.10696 7.6398L9.10925 7.6398L9.10827 6.6398ZM7.88867 5.4198L6.88867 5.41849L6.88867 5.42078L7.88867 5.4198ZM9.10867 4.2002L9.10965 3.20019L9.10769 3.2002L9.10867 4.2002ZM10.3287 5.4198L11.3287 5.42078L11.3287 5.41849L10.3287 5.4198ZM9.07741 4.00067C8.70857 4.01206 8.35865 4.16658 8.10177 4.43152L9.53763 5.82374C9.43271 5.93195 9.28978 5.99507 9.13913 5.99972L9.07741 4.00067ZM8.10177 4.43152C7.84489 4.69645 7.70123 5.05097 7.70123 5.42L9.70123 5.42C9.70123 5.57072 9.64255 5.71553 9.53763 5.82374L8.10177 4.43152ZM7.70123 5.42C7.70123 5.78902 7.84489 6.14354 8.10177 6.40847L9.53763 5.01625C9.64255 5.12446 9.70123 5.26927 9.70123 5.42L7.70123 5.42ZM8.10177 6.40847C8.35865 6.67341 8.70857 6.82793 9.07741 6.83932L9.13913 4.84027C9.28978 4.84492 9.43271 4.90804 9.53763 5.01625L8.10177 6.40847ZM9.10827 6.8398C9.89318 6.8398 10.5283 6.20306 10.5283 5.4198H8.52827C8.52827 5.09973 8.78737 4.8398 9.10827 4.8398V6.8398ZM10.5283 5.41884C10.5279 5.04247 10.3781 4.68163 10.1119 4.41563L8.69835 5.83051C8.58959 5.72186 8.52842 5.57448 8.52827 5.42075L10.5283 5.41884ZM10.1119 4.41563C9.84562 4.14962 9.48465 4.0002 9.10827 4.0002L9.10827 6.0002C8.95454 6.0002 8.8071 5.93916 8.69835 5.83051L10.1119 4.41563ZM9.10958 5.6398C9.051 5.63972 8.99485 5.61641 8.95343 5.57498L7.53899 6.98896C7.95485 7.40496 8.51875 7.63902 9.10696 7.63979L9.10958 5.6398ZM8.95343 5.57498C8.91202 5.53356 8.88873 5.47739 8.88867 5.41881L6.88867 5.42078C6.88925 6.00899 7.12312 6.57296 7.53899 6.98896L8.95343 5.57498ZM8.88867 5.4211C8.88875 5.36253 8.91206 5.30637 8.95348 5.26496L7.5395 3.85051C7.1235 4.26638 6.88944 4.83027 6.88867 5.41849L8.88867 5.4211ZM8.95348 5.26496C8.99491 5.22354 9.05108 5.20025 9.10965 5.20019L9.10769 3.2002C8.51947 3.20077 7.9555 3.43465 7.5395 3.85051L8.95348 5.26496ZM9.10769 5.20019C9.16627 5.20025 9.22243 5.22354 9.26386 5.26496L10.6778 3.85051C10.2618 3.43465 9.69787 3.20077 9.10965 3.2002L9.10769 5.20019ZM9.26386 5.26496C9.30529 5.30637 9.3286 5.36253 9.32867 5.4211L11.3287 5.41849C11.3279 4.83027 11.0938 4.26638 10.6778 3.85051L9.26386 5.26496ZM9.32867 5.41881C9.32861 5.4774 9.30531 5.53358 9.26388 5.57501L10.6781 6.98922C11.0941 6.5732 11.3281 6.00912 11.3287 5.42078L9.32867 5.41881ZM9.26388 5.57501C9.2227 5.61619 9.16623 5.63974 9.10729 5.6398L9.10925 7.6398C9.69725 7.63922 10.2618 7.40549 10.6781 6.98922L9.26388 5.57501Z" fill="#3F35FF" mask="url(#path-2-inside-1_71_130)"/>
<mask id="path-4-inside-2_71_130" fill="white">
<path fill-rule="evenodd" clip-rule="evenodd" d="M11.4002 5.82002H9.9282C9.82211 5.82002 9.72037 5.77788 9.64535 5.70286C9.57034 5.62785 9.5282 5.52611 9.5282 5.42002C9.5282 5.31393 9.57034 5.21219 9.64535 5.13718C9.72037 5.06216 9.82211 5.02002 9.9282 5.02002H11.4002C11.5063 5.02002 11.608 5.06216 11.683 5.13718C11.7581 5.21219 11.8002 5.31393 11.8002 5.42002C11.8002 5.52611 11.7581 5.62785 11.683 5.70286C11.608 5.77788 11.5063 5.82002 11.4002 5.82002ZM8.289 5.82002H4.6002C4.49411 5.82002 4.39237 5.77788 4.31735 5.70286C4.24234 5.62785 4.2002 5.52611 4.2002 5.42002C4.2002 5.31393 4.24234 5.21219 4.31735 5.13718C4.39237 5.06216 4.49411 5.02002 4.6002 5.02002H8.289C8.39508 5.02002 8.49682 5.06216 8.57184 5.13718C8.64685 5.21219 8.689 5.31393 8.689 5.42002C8.689 5.52611 8.64685 5.62785 8.57184 5.70286C8.49682 5.77788 8.39508 5.82002 8.289 5.82002ZM11.4002 8.40002H4.6002C4.49411 8.40002 4.39237 8.35788 4.31735 8.28286C4.24234 8.20785 4.2002 8.10611 4.2002 8.00002C4.2002 7.89393 4.24234 7.79219 4.31735 7.71718C4.39237 7.64216 4.49411 7.60002 4.6002 7.60002H11.4002C11.5063 7.60002 11.608 7.64216 11.683 7.71718C11.7581 7.79219 11.8002 7.89393 11.8002 8.00002C11.8002 8.10611 11.7581 8.20785 11.683 8.28286C11.608 8.35788 11.5063 8.40002 11.4002 8.40002ZM6.0722 10.98H4.6002C4.49411 10.98 4.39237 10.9379 4.31735 10.8629C4.24234 10.7878 4.2002 10.6861 4.2002 10.58C4.2002 10.4739 4.24234 10.3722 4.31735 10.2972C4.39237 10.2222 4.49411 10.18 4.6002 10.18H6.0722C6.17828 10.18 6.28002 10.2222 6.35504 10.2972C6.43005 10.3722 6.4722 10.4739 6.4722 10.58C6.4722 10.6861 6.43005 10.7878 6.35504 10.8629C6.28002 10.9379 6.17828 10.98 6.0722 10.98ZM11.4002 10.98H7.7114C7.60531 10.98 7.50357 10.9379 7.42855 10.8629C7.35354 10.7878 7.3114 10.6861 7.3114 10.58C7.3114 10.4739 7.35354 10.3722 7.42855 10.2972C7.50357 10.2222 7.60531 10.18 7.7114 10.18H11.4002C11.5063 10.18 11.608 10.2222 11.683 10.2972C11.7581 10.3722 11.8002 10.4739 11.8002 10.58C11.8002 10.6861 11.7581 10.7878 11.683 10.8629C11.608 10.9379 11.5063 10.98 11.4002 10.98Z"/>
</mask>
<path d="M11.4002 4.82002H9.9282V6.82002H11.4002V4.82002ZM9.9282 4.82002C10.0873 4.82002 10.2399 4.88323 10.3525 4.99576L8.93825 6.40997C9.2008 6.67252 9.55689 6.82002 9.9282 6.82002V4.82002ZM10.3525 4.99576C10.465 5.10828 10.5282 5.26089 10.5282 5.42002H8.5282C8.5282 5.79133 8.6757 6.14742 8.93825 6.40997L10.3525 4.99576ZM10.5282 5.42002C10.5282 5.57915 10.465 5.73176 10.3525 5.84428L8.93825 4.43007C8.6757 4.69262 8.5282 5.04871 8.5282 5.42002H10.5282ZM10.3525 5.84428C10.2399 5.9568 10.0873 6.02002 9.9282 6.02002V4.02002C9.55689 4.02002 9.2008 4.16752 8.93825 4.43007L10.3525 5.84428ZM9.9282 6.02002H11.4002V4.02002H9.9282V6.02002ZM11.4002 6.02002C11.2411 6.02002 11.0885 5.95681 10.9759 5.84428L12.3901 4.43007C12.1276 4.16752 11.7715 4.02002 11.4002 4.02002V6.02002ZM10.9759 5.84428C10.8634 5.73176 10.8002 5.57915 10.8002 5.42002H12.8002C12.8002 5.04872 12.6527 4.69262 12.3901 4.43007L10.9759 5.84428ZM10.8002 5.42002C10.8002 5.26089 10.8634 5.10828 10.9759 4.99576L12.3901 6.40997C12.6527 6.14742 12.8002 5.79132 12.8002 5.42002H10.8002ZM10.9759 4.99576C11.0885 4.88323 11.2411 4.82002 11.4002 4.82002V6.82002C11.7715 6.82002 12.1276 6.67252 12.3901 6.40997L10.9759 4.99576ZM8.289 4.82002H4.6002V6.82002H8.289V4.82002ZM4.6002 4.82002C4.75933 4.82002 4.91194 4.88323 5.02446 4.99576L3.61025 6.40997C3.8728 6.67252 4.22889 6.82002 4.6002 6.82002V4.82002ZM5.02446 4.99576C5.13698 5.10828 5.2002 5.26089 5.2002 5.42002H3.2002C3.2002 5.79132 3.3477 6.14742 3.61025 6.40997L5.02446 4.99576ZM5.2002 5.42002C5.2002 5.57915 5.13698 5.73176 5.02446 5.84428L3.61025 4.43007C3.3477 4.69262 3.2002 5.04872 3.2002 5.42002H5.2002ZM5.02446 5.84428C4.91194 5.95681 4.75933 6.02002 4.6002 6.02002V4.02002C4.22889 4.02002 3.8728 4.16752 3.61025 4.43007L5.02446 5.84428ZM4.6002 6.02002H8.289V4.02002H4.6002V6.02002ZM8.289 6.02002C8.12987 6.02002 7.97725 5.95681 7.86473 5.84428L9.27895 4.43007C9.01639 4.16752 8.6603 4.02002 8.289 4.02002V6.02002ZM7.86473 5.84428C7.75221 5.73176 7.689 5.57915 7.689 5.42002H9.689C9.689 5.04872 9.5415 4.69262 9.27895 4.43007L7.86473 5.84428ZM7.689 5.42002C7.689 5.26089 7.75221 5.10828 7.86473 4.99576L9.27895 6.40997C9.5415 6.14742 9.689 5.79132 9.689 5.42002H7.689ZM7.86473 4.99576C7.97725 4.88323 8.12987 4.82002 8.289 4.82002V6.82002C8.6603 6.82002 9.01639 6.67252 9.27895 6.40997L7.86473 4.99576ZM11.4002 7.40002H4.6002V9.40002H11.4002V7.40002ZM4.6002 7.40002C4.75932 7.40002 4.91194 7.46323 5.02446 7.57576L3.61025 8.98997C3.8728 9.25252 4.22889 9.40002 4.6002 9.40002V7.40002ZM5.02446 7.57576C5.13698 7.68828 5.2002 7.84089 5.2002 8.00002H3.2002C3.2002 8.37132 3.34769 8.72742 3.61025 8.98997L5.02446 7.57576ZM5.2002 8.00002C5.2002 8.15915 5.13698 8.31176 5.02446 8.42428L3.61025 7.01007C3.34769 7.27262 3.2002 7.62872 3.2002 8.00002H5.2002ZM5.02446 8.42428C4.91194 8.53681 4.75932 8.60002 4.6002 8.60002V6.60002C4.22889 6.60002 3.8728 6.74752 3.61025 7.01007L5.02446 8.42428ZM4.6002 8.60002H11.4002V6.60002H4.6002V8.60002ZM11.4002 8.60002C11.2411 8.60002 11.0885 8.53681 10.9759 8.42428L12.3901 7.01007C12.1276 6.74752 11.7715 6.60002 11.4002 6.60002V8.60002ZM10.9759 8.42428C10.8634 8.31176 10.8002 8.15915 10.8002 8.00002H12.8002C12.8002 7.62872 12.6527 7.27262 12.3901 7.01007L10.9759 8.42428ZM10.8002 8.00002C10.8002 7.84089 10.8634 7.68828 10.9759 7.57576L12.3901 8.98997C12.6527 8.72742 12.8002 8.37132 12.8002 8.00002H10.8002ZM10.9759 7.57576C11.0885 7.46323 11.2411 7.40002 11.4002 7.40002V9.40002C11.7715 9.40002 12.1276 9.25252 12.3901 8.98997L10.9759 7.57576ZM6.0722 9.98002H4.6002V11.98H6.0722V9.98002ZM4.6002 9.98002C4.75933 9.98002 4.91194 10.0432 5.02446 10.1558L3.61025 11.57C3.87279 11.8325 4.22889 11.98 4.6002 11.98V9.98002ZM5.02446 10.1558C5.13698 10.2683 5.2002 10.4209 5.2002 10.58H3.2002C3.2002 10.9513 3.3477 11.3074 3.61025 11.57L5.02446 10.1558ZM5.2002 10.58C5.2002 10.7391 5.13698 10.8918 5.02446 11.0043L3.61025 9.59007C3.34769 9.85262 3.2002 10.2087 3.2002 10.58H5.2002ZM5.02446 11.0043C4.91194 11.1168 4.75932 11.18 4.6002 11.18V9.18002C4.22889 9.18002 3.8728 9.32752 3.61025 9.59007L5.02446 11.0043ZM4.6002 11.18H6.0722V9.18002H4.6002V11.18ZM6.0722 11.18C5.91307 11.18 5.76045 11.1168 5.64793 11.0043L7.06214 9.59007C6.79959 9.32752 6.4435 9.18002 6.0722 9.18002V11.18ZM5.64793 11.0043C5.53541 10.8918 5.4722 10.7391 5.4722 10.58H7.4722C7.4722 10.2087 7.3247 9.85262 7.06214 9.59007L5.64793 11.0043ZM5.4722 10.58C5.4722 10.4209 5.53541 10.2683 5.64793 10.1558L7.06214 11.57C7.32469 11.3074 7.4722 10.9513 7.4722 10.58H5.4722ZM5.64793 10.1558C5.76045 10.0432 5.91306 9.98002 6.0722 9.98002V11.98C6.4435 11.98 6.7996 11.8325 7.06214 11.57L5.64793 10.1558ZM11.4002 9.98002H7.7114V11.98H11.4002V9.98002ZM7.7114 9.98002C7.87053 9.98002 8.02314 10.0432 8.13566 10.1558L6.72145 11.57C6.98399 11.8325 7.34009 11.98 7.7114 11.98V9.98002ZM8.13566 10.1558C8.24818 10.2683 8.3114 10.4209 8.3114 10.58H6.3114C6.3114 10.9513 6.45889 11.3074 6.72145 11.57L8.13566 10.1558ZM8.3114 10.58C8.3114 10.7391 8.24818 10.8918 8.13566 11.0043L6.72145 9.59007C6.45889 9.85262 6.3114 10.2087 6.3114 10.58H8.3114ZM8.13566 11.0043C8.02314 11.1168 7.87052 11.18 7.7114 11.18V9.18002C7.34009 9.18002 6.984 9.32752 6.72145 9.59007L8.13566 11.0043ZM7.7114 11.18H11.4002V9.18002H7.7114V11.18ZM11.4002 11.18C11.2411 11.18 11.0885 11.1168 10.9759 11.0043L12.3901 9.59007C12.1276 9.32752 11.7715 9.18002 11.4002 9.18002V11.18ZM10.9759 11.0043C10.8634 10.8918 10.8002 10.7391 10.8002 10.58H12.8002C12.8002 10.2087 12.6527 9.85262 12.3901 9.59007L10.9759 11.0043ZM10.8002 10.58C10.8002 10.4209 10.8634 10.2683 10.9759 10.1558L12.3901 11.57C12.6527 11.3074 12.8002 10.9513 12.8002 10.58H10.8002ZM10.9759 10.1558C11.0885 10.0432 11.2411 9.98002 11.4002 9.98002V11.98C11.7715 11.98 12.1276 11.8325 12.3901 11.57L10.9759 10.1558Z" fill="#3F35FF" mask="url(#path-4-inside-2_71_130)"/>
<mask id="path-6-inside-3_71_130" fill="white">
<path fill-rule="evenodd" clip-rule="evenodd" d="M6.89187 10.1604C6.65987 10.1604 6.47188 10.3492 6.47188 10.5804C6.47188 10.6634 6.49651 10.7446 6.54266 10.8137C6.58881 10.8828 6.6544 10.9366 6.73115 10.9684C6.80789 11.0002 6.89234 11.0085 6.97381 10.9923C7.05529 10.9761 7.13012 10.9361 7.18886 10.8773C7.2476 10.8186 7.2876 10.7438 7.30381 10.6623C7.32001 10.5808 7.31169 10.4964 7.2799 10.4196C7.24812 10.3429 7.19428 10.2773 7.12521 10.2311C7.05615 10.185 6.97494 10.1604 6.89187 10.1604ZM6.89187 11.8004C6.56841 11.8 6.25828 11.6714 6.02956 11.4427C5.80083 11.2139 5.67219 10.9038 5.67188 10.5804C5.67219 10.2569 5.80083 9.94676 6.02956 9.71803C6.25828 9.48931 6.56841 9.36067 6.89187 9.36035C7.21527 9.36078 7.5253 9.48946 7.75394 9.71817C7.98258 9.94689 8.11116 10.257 8.11148 10.5804C8.11116 10.9038 7.98252 11.2139 7.75379 11.4427C7.52507 11.6714 7.21534 11.8 6.89187 11.8004Z"/>
</mask>
<path d="M6.89187 11.8004L6.89089 12.8004L6.89286 12.8004L6.89187 11.8004ZM5.67188 10.5804L4.67187 10.5794L4.67188 10.5813L5.67188 10.5804ZM6.89187 9.36035L6.89318 8.36035L6.89089 8.36035L6.89187 9.36035ZM8.11148 10.5804L9.11148 10.5813L9.11147 10.5794L8.11148 10.5804ZM6.89187 9.16035C6.10635 9.16035 5.47188 9.79811 5.47188 10.5804H7.47188C7.47188 10.9002 7.2134 11.1604 6.89187 11.1604V9.16035ZM5.47188 10.5804C5.47188 10.8612 5.55516 11.1357 5.71119 11.3693L7.37413 10.2581C7.43786 10.3535 7.47188 10.4656 7.47188 10.5804H5.47188ZM5.71119 11.3693C5.86722 11.6028 6.08899 11.7848 6.34846 11.8923L7.11383 10.0445C7.21981 10.0884 7.3104 10.1627 7.37413 10.2581L5.71119 11.3693ZM6.34846 11.8923C6.60793 11.9997 6.89345 12.0279 7.1689 11.9731L6.77872 10.0115C6.89123 9.98912 7.00785 10.0006 7.11383 10.0445L6.34846 11.8923ZM7.1689 11.9731C7.44435 11.9183 7.69737 11.783 7.89597 11.5844L6.48175 10.1702C6.56287 10.0891 6.66622 10.0339 6.77872 10.0115L7.1689 11.9731ZM7.89597 11.5844C8.09456 11.3859 8.2298 11.1328 8.28459 10.8574L6.32302 10.4672C6.3454 10.3547 6.40064 10.2513 6.48175 10.1702L7.89597 11.5844ZM8.28459 10.8574C8.33938 10.5819 8.31126 10.2964 8.20378 10.0369L6.35602 10.8023C6.31213 10.6963 6.30064 10.5797 6.32302 10.4672L8.28459 10.8574ZM8.20378 10.0369C8.09631 9.77747 7.9143 9.5557 7.68078 9.39967L6.56964 11.0626C6.47427 10.9989 6.39992 10.9083 6.35602 10.8023L8.20378 10.0369ZM7.68078 9.39967C7.44727 9.24364 7.17273 9.16035 6.89187 9.16035V11.1604C6.77716 11.1604 6.66502 11.1263 6.56964 11.0626L7.68078 9.39967ZM6.89286 10.8004C6.83427 10.8003 6.77809 10.777 6.73666 10.7356L5.32245 12.1498C5.73847 12.5658 6.30255 12.7998 6.89089 12.8004L6.89286 10.8004ZM6.73666 10.7356C6.69523 10.6941 6.67193 10.638 6.67187 10.5794L4.67188 10.5813C4.67245 11.1697 4.90643 11.7338 5.32245 12.1498L6.73666 10.7356ZM6.67187 10.5813C6.67193 10.5227 6.69523 10.4666 6.73666 10.4251L5.32245 9.01093C4.90643 9.42695 4.67245 9.99103 4.67188 10.5794L6.67187 10.5813ZM6.73666 10.4251C6.77809 10.3837 6.83427 10.3604 6.89286 10.3604L6.89089 8.36035C6.30255 8.36093 5.73847 8.5949 5.32245 9.01093L6.73666 10.4251ZM6.89057 10.3604C6.94914 10.3604 7.0053 10.3837 7.04671 10.4252L8.46116 9.01118C8.04529 8.59518 7.4814 8.36112 6.89318 8.36035L6.89057 10.3604ZM7.04671 10.4252C7.08813 10.4666 7.11142 10.5228 7.11148 10.5813L9.11147 10.5794C9.1109 9.99115 8.87702 9.42718 8.46116 9.01118L7.04671 10.4252ZM7.11148 10.5794C7.11142 10.638 7.08812 10.6941 7.04669 10.7356L8.4609 12.1498C8.87692 11.7338 9.1109 11.1697 9.11147 10.5813L7.11148 10.5794ZM7.04669 10.7356C7.00501 10.7772 6.94914 10.8003 6.89089 10.8004L6.89286 12.8004C7.48155 12.7998 8.04513 12.5656 8.4609 12.1498L7.04669 10.7356Z" fill="#3F35FF" mask="url(#path-6-inside-3_71_130)"/>
</g>
<defs>
<clipPath id="clip0_71_130">
<rect width="16" height="16" fill="white"/>
</clipPath>
</defs>
</svg>
