<svg width="28" height="28" viewBox="0 0 28 28" fill="none" xmlns="http://www.w3.org/2000/svg">
  <path d="M10.6833 24.2332V20.6554C10.6832 19.7453 11.4251 19.0059 12.3444 18.9998H15.7114C16.635 18.9998 17.3838 19.741 17.3838 20.6554V20.6554V24.2443C17.3835 25.017 18.0065 25.6485 18.7867 25.6666H21.0314C23.2692 25.6666 25.0832 23.8707 25.0832 21.6554V21.6554V11.4774C25.0712 10.6059 24.6579 9.78749 23.9608 9.25512L16.2838 3.13277C14.9389 2.06675 13.0271 2.06675 11.6822 3.13277L4.03887 9.26623C3.33914 9.79644 2.92512 10.6162 2.9165 11.4885V21.6554C2.9165 23.8707 4.73053 25.6666 6.96823 25.6666H9.21296C10.0126 25.6666 10.6608 25.0248 10.6608 24.2332V24.2332" stroke="#3F35FF" stroke-width="2" stroke-linecap="round" stroke-linejoin="round"/>
  </svg>
  