<svg width="11" height="11" viewBox="0 0 11 11" fill="none" xmlns="http://www.w3.org/2000/svg">
  <path d="M10.9163 8.16522V9.79022C10.9169 9.94107 10.886 10.0904 10.8256 10.2286C10.7651 10.3668 10.6765 10.4909 10.5653 10.5929C10.4542 10.6949 10.3229 10.7725 10.18 10.8208C10.0371 10.8692 9.8857 10.8871 9.73545 10.8735C8.06865 10.6924 6.46758 10.1229 5.06087 9.21063C3.75211 8.37899 2.64251 7.26939 1.81087 5.96063C0.89544 4.54753 0.32575 2.93867 0.147951 1.26438C0.134415 1.11459 0.152217 0.963627 0.200222 0.821095C0.248228 0.678563 0.325385 0.547589 0.426783 0.43651C0.52818 0.325431 0.651596 0.236683 0.789171 0.175915C0.926747 0.115147 1.07547 0.0836902 1.22587 0.0835486H2.85087C3.11374 0.0809614 3.36859 0.17405 3.56791 0.345462C3.76722 0.516875 3.89741 0.754915 3.9342 1.01522C4.00279 1.53525 4.12999 2.04586 4.31337 2.5373C4.38625 2.73117 4.40202 2.94188 4.35882 3.14444C4.31562 3.34701 4.21525 3.53294 4.06962 3.68022L3.3817 4.36813C4.15279 5.72422 5.27561 6.84704 6.6317 7.61813L7.31962 6.93022C7.46689 6.78458 7.65283 6.68422 7.85539 6.64102C8.05796 6.59781 8.26866 6.61359 8.46253 6.68646C8.95397 6.86985 9.46458 6.99704 9.98462 7.06563C10.2477 7.10275 10.488 7.23528 10.6598 7.43802C10.8316 7.64076 10.9229 7.89957 10.9163 8.16522Z" fill="#3F35FF"/>
  </svg>
  