<svg width="14" height="14" viewBox="0 0 14 14" fill="none" xmlns="http://www.w3.org/2000/svg">
  <path d="M5.33971 3.1545C6.0788 1.82917 6.44805 1.1665 7.00046 1.1665C7.55288 1.1665 7.92213 1.82917 8.66121 3.1545L8.85255 3.4975C9.06255 3.87434 9.16755 4.06275 9.33088 4.187C9.49421 4.31125 9.69838 4.35734 10.1067 4.4495L10.4777 4.5335C11.9127 4.85842 12.6296 5.02059 12.8005 5.5695C12.9709 6.11784 12.482 6.69009 11.5038 7.834L11.2506 8.12975C10.973 8.45467 10.8335 8.61742 10.7711 8.81809C10.7087 9.01934 10.7297 9.23633 10.7717 9.66975L10.8102 10.0647C10.9578 11.5913 11.0319 12.3543 10.585 12.6932C10.1382 13.0321 9.46621 12.7229 8.12338 12.1046L7.77513 11.9448C7.39363 11.7686 7.20288 11.6811 7.00046 11.6811C6.79805 11.6811 6.6073 11.7686 6.2258 11.9448L5.87813 12.1046C4.53471 12.7229 3.86271 13.0321 3.41646 12.6938C2.96905 12.3543 3.04313 11.5913 3.19071 10.0647L3.22921 9.67033C3.27121 9.23633 3.29221 9.01934 3.22921 8.81867C3.16738 8.61742 3.02796 8.45467 2.7503 8.13034L2.49713 7.834C1.51888 6.69067 1.03005 6.11842 1.20038 5.5695C1.37071 5.02059 2.0888 4.85784 3.5238 4.5335L3.8948 4.4495C4.30255 4.35734 4.50613 4.31125 4.67005 4.187C4.83396 4.06275 4.93838 3.87434 5.14838 3.4975L5.33971 3.1545Z" fill="#3F35FF"/>
  </svg>
  