<svg width="334" height="333" viewBox="0 0 334 333" fill="none" xmlns="http://www.w3.org/2000/svg">
<rect x="0.5" y="0.5" width="333" height="332" rx="11.5" fill="white" stroke="#C0C5FF"/>
<rect x="14" y="12" width="306" height="310" rx="8" fill="white"/>
<path d="M48.1831 30.175L44.3581 34L48.1831 37.825L46.9998 39L41.9998 34L46.9998 29L48.1831 30.175Z" fill="#B5BEC6"/>
<path d="M156.637 26.5664V40H154.207V28.9229H154.132L150.997 30.9268V28.7188L154.318 26.5664H156.637ZM165.358 26.5664V40H162.927V28.9229H162.853L159.717 30.9268V28.7188L163.039 26.5664H165.358ZM182.131 24.8965V34.6748H180.053V33.9883H176.917V32.7266H180.053V24.8965H182.131ZM168.048 30.9453C171.286 30.9453 175.34 30.9175 178.94 30.5557L179.051 31.8545C177.521 32.0586 175.943 32.1978 174.394 32.272V34.6934H172.353V32.3555C170.915 32.3926 169.533 32.4019 168.271 32.3926L168.048 30.9453ZM169.236 27.6797C169.236 26.1582 170.915 25.1655 173.466 25.1562C175.962 25.1655 177.65 26.1582 177.66 27.6797C177.65 29.2383 175.962 30.1846 173.466 30.1846C170.915 30.1846 169.236 29.2383 169.236 27.6797ZM170.498 36.6045V35.1943H182.131V38.9609H172.594V40.0371H182.577V41.5029H170.572V37.6064H180.09V36.6045H170.498ZM171.203 27.6797C171.184 28.3848 172.056 28.8208 173.466 28.8115C174.849 28.8208 175.73 28.3848 175.73 27.6797C175.73 26.9746 174.849 26.52 173.466 26.5293C172.056 26.52 171.184 26.9746 171.203 27.6797Z" fill="#3F35FF"/>
<path d="M285 37.825L288.825 34L285 30.175L286.183 29L291.183 34L286.183 39L285 37.825Z" fill="#B5BEC6"/>
<path d="M51.1895 78.918C52.748 78.9297 53.8848 79.8672 53.8848 81.2266C53.8848 82.5859 52.748 83.5234 51.1895 83.5234C49.6074 83.5234 48.4824 82.5859 48.4824 81.2266C48.4824 79.8672 49.6074 78.9297 51.1895 78.918ZM51.1895 79.6914C50.1465 79.6914 49.373 80.3242 49.3848 81.2266C49.373 82.1406 50.1465 82.7734 51.1895 82.7734C52.2207 82.7734 52.9941 82.1406 52.9941 81.2266C52.9941 80.3242 52.2207 79.6914 51.1895 79.6914ZM56.8379 78.5312V83.8867H55.9238V78.5312H56.8379ZM56.8379 84.3906V86.8984H50.9902V88.0703H57.2129V88.8086H50.0879V86.207H55.9238V85.1289H50.0645V84.3906H56.8379Z" fill="#B5BEC6"/>
<path d="M94.8262 78.543V84.6836H93.9004V84.1094H91.791V83.5H93.9004V78.543H94.8262ZM86.2012 82.4688C88.2168 82.4805 90.7949 82.457 93.0449 82.2109L93.1035 82.8086C92.084 82.9551 91.0234 83.043 89.9863 83.0898V84.7188H89.084V83.125C88.0996 83.1602 87.1562 83.166 86.3066 83.1602L86.2012 82.4688ZM94.8262 85.0586V87.2148H88.7441V88.1523H95.166V88.832H87.8418V86.5703H93.9121V85.7266H87.7949V85.0586H94.8262ZM89.5996 78.7422C91.1465 78.7422 92.1777 79.3516 92.1895 80.3125C92.1777 81.2852 91.1465 81.8711 89.5996 81.8711C88.0293 81.8711 87.0098 81.2852 87.0098 80.3125C87.0098 79.3516 88.0293 78.7422 89.5996 78.7422ZM89.5996 79.3867C88.5449 79.3867 87.8652 79.75 87.877 80.3125C87.8652 80.8633 88.5449 81.2383 89.5996 81.2383C90.6426 81.2383 91.3223 80.8633 91.3223 80.3125C91.3223 79.75 90.6426 79.3867 89.5996 79.3867Z" fill="#B5BEC6"/>
<path d="M132.322 78.5312V82.9727H133.986V83.7461H132.322V88.9492H131.396V78.5312H132.322ZM124.107 86.1719C124.957 86.1719 125.947 86.1719 126.979 86.1367V84.9766C125.766 84.8418 124.975 84.1328 124.986 83.1016C124.975 81.9297 125.971 81.168 127.447 81.168C128.9 81.168 129.908 81.9297 129.92 83.1016C129.908 84.1328 129.105 84.8418 127.904 84.9883V86.1016C128.877 86.0547 129.855 85.9785 130.764 85.8438L130.822 86.5469C128.549 86.9336 126.088 86.957 124.26 86.957L124.107 86.1719ZM130.576 79.8086V80.5586H124.295V79.8086H126.979V78.5547H127.904V79.8086H130.576ZM127.447 81.8828C126.486 81.8828 125.842 82.375 125.842 83.1016C125.842 83.8281 126.486 84.2969 127.447 84.2852C128.396 84.2969 129.041 83.8281 129.041 83.1016C129.041 82.375 128.396 81.8828 127.447 81.8828Z" fill="#B5BEC6"/>
<path d="M167.463 79.5039C167.463 80.9688 169.385 82.2461 171.26 82.5039L170.885 83.2539C169.268 82.9844 167.668 82.0879 166.994 80.8047C166.326 82.0938 164.721 82.9844 163.104 83.2539L162.729 82.5039C164.604 82.2461 166.514 80.9922 166.514 79.5039V78.9062H167.463V79.5039ZM171.729 84.4023V85.1758H167.416V88.9492H166.514V85.1758H162.236V84.4023H171.729Z" fill="#B5BEC6"/>
<path d="M208.521 78.9766V82.4922H205.439V83.8281H209.729V84.5781H200.236V83.8281H204.525V82.4922H201.467V78.9766H208.521ZM202.369 79.7148V81.7539H207.607V79.7148H202.369ZM208.557 85.668V88.9492H207.631V86.4062H201.291V85.668H208.557Z" fill="#B5BEC6"/>
<path d="M246.521 79.0938V79.8672C246.521 80.6758 246.521 81.625 246.252 82.9258H247.775V83.6875H238.236V82.9258H245.326C245.607 81.6191 245.607 80.6758 245.607 79.8672V79.8555H239.443V79.0938H246.521ZM246.568 85.1289V88.8086H239.408V85.1289H246.568ZM240.322 85.8555V88.0586H245.654V85.8555H240.322Z" fill="#B5BEC6"/>
<path d="M284.674 83.957V84.707H281.439V86.8867H285.775V87.6484H276.236V86.8867H280.525V84.707H277.467V79.3867H284.557V80.1484H278.404V81.6367H284.334V82.3867H278.404V83.957H284.674Z" fill="#B5BEC6"/>
<path d="M54.5547 127.188V138.5H53.1328V128.656H53.0703L50.3203 130.484V129.062L53.1328 127.188H54.5547Z" fill="#4A5660"/>
<path d="M87.3672 138.5L87.3516 137.469L91.2109 133.406C92.5547 131.984 93.1953 131.219 93.1953 130.172C93.1953 129.016 92.2109 128.25 90.9453 128.25C89.6016 128.25 88.7422 129.109 88.7422 130.375H87.4141C87.3984 128.375 88.9453 127.031 90.9922 127.031C93.0391 127.031 94.5078 128.406 94.5078 130.172C94.5078 131.438 93.9141 132.422 91.9141 134.484L89.3203 137.156V137.25H94.7109V138.5H87.3672Z" fill="#4A5660"/>
<path d="M129.031 138.656C126.781 138.656 125.172 137.453 125.094 135.656H126.516C126.594 136.734 127.672 137.406 129.016 137.406C130.5 137.406 131.594 136.594 131.594 135.422C131.594 134.188 130.609 133.312 128.844 133.312H127.922V132.078H128.844C130.219 132.078 131.172 131.312 131.172 130.141C131.172 129.016 130.344 128.25 129.062 128.25C127.859 128.25 126.75 128.922 126.688 130.031H125.328C125.406 128.234 127.062 127.031 129.078 127.031C131.234 127.031 132.547 128.438 132.531 130.062C132.547 131.344 131.797 132.297 130.609 132.625V132.703C132.078 132.938 132.984 133.984 132.969 135.422C132.984 137.281 131.281 138.656 129.031 138.656Z" fill="#4A5660"/>
<path d="M162.789 136.188V135.031L167.883 127.188H169.617V134.953H171.195V136.188H169.617V138.5H168.273V136.188H162.789ZM164.305 134.953H168.273V128.969H168.133L164.305 134.859V134.953Z" fill="#4A5660"/>
<path d="M204.977 138.656C202.93 138.656 201.383 137.391 201.305 135.656H202.664C202.773 136.672 203.758 137.422 204.977 137.422C206.445 137.422 207.508 136.344 207.508 134.922C207.508 133.453 206.398 132.375 204.883 132.359C203.93 132.344 203.195 132.641 202.773 133.375H201.414L202.211 127.188H208.336V128.438H203.383L202.961 131.75H203.07C203.57 131.359 204.336 131.094 205.133 131.094C207.289 131.094 208.883 132.688 208.883 134.891C208.883 137.078 207.227 138.656 204.977 138.656Z" fill="#4A5660"/>
<path d="M243.094 138.656C241.125 138.625 238.969 137.469 238.969 133.281C238.969 129.281 240.609 127.031 243.266 127.031C245.25 127.031 246.641 128.25 246.938 130.031H245.547C245.281 129.031 244.531 128.281 243.266 128.281C241.406 128.281 240.297 129.875 240.297 132.594H240.438C241.094 131.656 242.125 131.094 243.344 131.094C245.359 131.094 247.031 132.656 247.031 134.844C247.031 136.969 245.469 138.672 243.094 138.656ZM243.094 137.422C244.562 137.422 245.656 136.266 245.672 134.859C245.656 133.469 244.609 132.328 243.125 132.328C241.641 132.328 240.5 133.531 240.484 134.875C240.484 136.203 241.578 137.422 243.094 137.422Z" fill="#4A5660"/>
<path d="M278.008 138.5L283.195 128.516V128.438H277.211V127.188H284.648V128.5L279.477 138.5H278.008Z" fill="#4A5660"/>
<path d="M52.9922 176.656C50.6172 176.656 48.9609 175.344 48.9766 173.5C48.9609 172.031 49.9766 170.828 51.2734 170.625V170.562C50.1484 170.297 49.4141 169.266 49.4141 168.031C49.4141 166.297 50.9297 165.031 52.9922 165.031C55.0547 165.031 56.5703 166.297 56.5859 168.031C56.5703 169.266 55.8203 170.297 54.7109 170.562V170.625C55.9922 170.828 57.0078 172.031 57.0234 173.5C57.0078 175.344 55.3516 176.656 52.9922 176.656ZM52.9922 175.422C54.6172 175.422 55.6172 174.609 55.6172 173.422C55.6172 172.172 54.5078 171.25 52.9922 171.25C51.4766 171.25 50.3516 172.172 50.3828 173.422C50.3516 174.609 51.3672 175.422 52.9922 175.422ZM52.9922 170.062C54.2734 170.062 55.2109 169.281 55.2109 168.141C55.2109 167.016 54.3203 166.25 52.9922 166.25C51.6484 166.25 50.7734 167.016 50.7734 168.141C50.7734 169.281 51.6953 170.062 52.9922 170.062Z" fill="#4A5660"/>
<path d="M90.9219 165.031C92.875 165.047 95.0312 166.219 95.0312 170.391C95.0312 174.406 93.3906 176.656 90.7344 176.656C88.75 176.656 87.3438 175.438 87.0625 173.641H88.4531C88.7031 174.656 89.4688 175.406 90.7344 175.406C92.5781 175.406 93.7031 173.812 93.7188 171.062H93.5625C92.9062 172 91.875 172.562 90.6719 172.562C88.6406 172.562 86.9688 171.016 86.9688 168.828C86.9688 166.719 88.5156 165.016 90.9219 165.031ZM90.9219 166.266C89.4375 166.266 88.3281 167.422 88.3438 168.812C88.3438 170.219 89.3906 171.328 90.875 171.328C92.3438 171.328 93.5 170.109 93.5 168.781C93.5 167.484 92.4219 166.266 90.9219 166.266Z" fill="#4A5660"/>
<path d="M125.789 165.188V176.5H124.367V166.656H124.305L121.555 168.484V167.062L124.367 165.188H125.789ZM132.508 176.656C129.992 176.656 128.555 174.547 128.555 170.844C128.555 167.172 130.023 165.031 132.508 165.031C134.992 165.031 136.461 167.172 136.461 170.844C136.461 174.547 135.008 176.656 132.508 176.656ZM132.508 175.406C134.133 175.406 135.086 173.766 135.086 170.844C135.086 167.922 134.133 166.25 132.508 166.25C130.883 166.25 129.914 167.922 129.914 170.844C129.914 173.766 130.867 175.406 132.508 175.406Z" fill="#4A5660"/>
<path d="M165.047 165.188V176.5H163.625V166.656H163.562L160.812 168.484V167.062L163.625 165.188H165.047ZM172.062 165.188V176.5H170.641V166.656H170.578L167.828 168.484V167.062L170.641 165.188H172.062Z" fill="#4A5660"/>
<path d="M201.859 165.188V176.5H200.438V166.656H200.375L197.625 168.484V167.062L200.438 165.188H201.859ZM204.875 176.5L204.859 175.469L208.719 171.406C210.062 169.984 210.703 169.219 210.703 168.172C210.703 167.016 209.719 166.25 208.453 166.25C207.109 166.25 206.25 167.109 206.25 168.375H204.922C204.906 166.375 206.453 165.031 208.5 165.031C210.547 165.031 212.016 166.406 212.016 168.172C212.016 169.438 211.422 170.422 209.422 172.484L206.828 175.156V175.25H212.219V176.5H204.875Z" fill="#4A5660"/>
<path d="M239.617 165.188V176.5H238.195V166.656H238.133L235.383 168.484V167.062L238.195 165.188H239.617ZM246.539 176.656C244.289 176.656 242.68 175.453 242.602 173.656H244.023C244.102 174.734 245.18 175.406 246.523 175.406C248.008 175.406 249.102 174.594 249.102 173.422C249.102 172.188 248.117 171.312 246.352 171.312H245.43V170.078H246.352C247.727 170.078 248.68 169.312 248.68 168.141C248.68 167.016 247.852 166.25 246.57 166.25C245.367 166.25 244.258 166.922 244.195 168.031H242.836C242.914 166.234 244.57 165.031 246.586 165.031C248.742 165.031 250.055 166.438 250.039 168.062C250.055 169.344 249.305 170.297 248.117 170.625V170.703C249.586 170.938 250.492 171.984 250.477 173.422C250.492 175.281 248.789 176.656 246.539 176.656Z" fill="#4A5660"/>
<path d="M277.562 165.188V176.5H276.141V166.656H276.078L273.328 168.484V167.062L276.141 165.188H277.562ZM280.297 174.188V173.031L285.391 165.188H287.125V172.953H288.703V174.188H287.125V176.5H285.781V174.188H280.297ZM281.812 172.953H285.781V166.969H285.641L281.812 172.859V172.953Z" fill="#4A5660"/>
<path d="M49.7812 203.188V214.5H48.3594V204.656H48.2969L45.5469 206.484V205.062L48.3594 203.188H49.7812ZM56.4844 214.656C54.4375 214.656 52.8906 213.391 52.8125 211.656H54.1719C54.2812 212.672 55.2656 213.422 56.4844 213.422C57.9531 213.422 59.0156 212.344 59.0156 210.922C59.0156 209.453 57.9062 208.375 56.3906 208.359C55.4375 208.344 54.7031 208.641 54.2812 209.375H52.9219L53.7188 203.188H59.8438V204.438H54.8906L54.4688 207.75H54.5781C55.0781 207.359 55.8438 207.094 56.6406 207.094C58.7969 207.094 60.3906 208.688 60.3906 210.891C60.3906 213.078 58.7344 214.656 56.4844 214.656Z" fill="#4A5660"/>
<path d="M87.6484 203.188V214.5H86.2266V204.656H86.1641L83.4141 206.484V205.062L86.2266 203.188H87.6484ZM94.6016 214.656C92.6328 214.625 90.4766 213.469 90.4766 209.281C90.4766 205.281 92.1172 203.031 94.7734 203.031C96.7578 203.031 98.1484 204.25 98.4453 206.031H97.0547C96.7891 205.031 96.0391 204.281 94.7734 204.281C92.9141 204.281 91.8047 205.875 91.8047 208.594H91.9453C92.6016 207.656 93.6328 207.094 94.8516 207.094C96.8672 207.094 98.5391 208.656 98.5391 210.844C98.5391 212.969 96.9766 214.672 94.6016 214.656ZM94.6016 213.422C96.0703 213.422 97.1641 212.266 97.1797 210.859C97.1641 209.469 96.1172 208.328 94.6328 208.328C93.1484 208.328 92.0078 209.531 91.9922 210.875C91.9922 212.203 93.0859 213.422 94.6016 213.422Z" fill="#4A5660"/>
<path d="M126.141 203.188V214.5H124.719V204.656H124.656L121.906 206.484V205.062L124.719 203.188H126.141ZM129.516 214.5L134.703 204.516V204.438H128.719V203.188H136.156V204.5L130.984 214.5H129.516Z" fill="#4A5660"/>
<path d="M163.703 203.188V214.5H162.281V204.656H162.219L159.469 206.484V205.062L162.281 203.188H163.703ZM170.5 214.656C168.125 214.656 166.469 213.344 166.484 211.5C166.469 210.031 167.484 208.828 168.781 208.625V208.562C167.656 208.297 166.922 207.266 166.922 206.031C166.922 204.297 168.438 203.031 170.5 203.031C172.562 203.031 174.078 204.297 174.094 206.031C174.078 207.266 173.328 208.297 172.219 208.562V208.625C173.5 208.828 174.516 210.031 174.531 211.5C174.516 213.344 172.859 214.656 170.5 214.656ZM170.5 213.422C172.125 213.422 173.125 212.609 173.125 211.422C173.125 210.172 172.016 209.25 170.5 209.25C168.984 209.25 167.859 210.172 167.891 211.422C167.859 212.609 168.875 213.422 170.5 213.422ZM170.5 208.062C171.781 208.062 172.719 207.281 172.719 206.141C172.719 205.016 171.828 204.25 170.5 204.25C169.156 204.25 168.281 205.016 168.281 206.141C168.281 207.281 169.203 208.062 170.5 208.062Z" fill="#4A5660"/>
<rect x="190" y="192" width="30" height="30" rx="15" fill="white"/>
<path d="M201.648 203.188V214.5H200.227V204.656H200.164L197.414 206.484V205.062L200.227 203.188H201.648ZM208.43 203.031C210.383 203.047 212.539 204.219 212.539 208.391C212.539 212.406 210.898 214.656 208.242 214.656C206.258 214.656 204.852 213.438 204.57 211.641H205.961C206.211 212.656 206.977 213.406 208.242 213.406C210.086 213.406 211.211 211.812 211.227 209.062H211.07C210.414 210 209.383 210.562 208.18 210.562C206.148 210.562 204.477 209.016 204.477 206.828C204.477 204.719 206.023 203.016 208.43 203.031ZM208.43 204.266C206.945 204.266 205.836 205.422 205.852 206.812C205.852 208.219 206.898 209.328 208.383 209.328C209.852 209.328 211.008 208.109 211.008 206.781C211.008 205.484 209.93 204.266 208.43 204.266Z" fill="#313131"/>
<path d="M234.602 214.5L234.586 213.469L238.445 209.406C239.789 207.984 240.43 207.219 240.43 206.172C240.43 205.016 239.445 204.25 238.18 204.25C236.836 204.25 235.977 205.109 235.977 206.375H234.648C234.633 204.375 236.18 203.031 238.227 203.031C240.273 203.031 241.742 204.406 241.742 206.172C241.742 207.438 241.148 208.422 239.148 210.484L236.555 213.156V213.25H241.945V214.5H234.602ZM247.695 214.656C245.18 214.656 243.742 212.547 243.742 208.844C243.742 205.172 245.211 203.031 247.695 203.031C250.18 203.031 251.648 205.172 251.648 208.844C251.648 212.547 250.195 214.656 247.695 214.656ZM247.695 213.406C249.32 213.406 250.273 211.766 250.273 208.844C250.273 205.922 249.32 204.25 247.695 204.25C246.07 204.25 245.102 205.922 245.102 208.844C245.102 211.766 246.055 213.406 247.695 213.406Z" fill="#4A5660"/>
<path d="M273.859 214.5L273.844 213.469L277.703 209.406C279.047 207.984 279.688 207.219 279.688 206.172C279.688 205.016 278.703 204.25 277.438 204.25C276.094 204.25 275.234 205.109 275.234 206.375H273.906C273.891 204.375 275.438 203.031 277.484 203.031C279.531 203.031 281 204.406 281 206.172C281 207.438 280.406 208.422 278.406 210.484L275.812 213.156V213.25H281.203V214.5H273.859ZM287.25 203.188V214.5H285.828V204.656H285.766L283.016 206.484V205.062L285.828 203.188H287.25Z" fill="#4A5660"/>
<path d="M44.6719 252.5L44.6562 251.469L48.5156 247.406C49.8594 245.984 50.5 245.219 50.5 244.172C50.5 243.016 49.5156 242.25 48.25 242.25C46.9062 242.25 46.0469 243.109 46.0469 244.375H44.7188C44.7031 242.375 46.25 241.031 48.2969 241.031C50.3438 241.031 51.8125 242.406 51.8125 244.172C51.8125 245.438 51.2188 246.422 49.2188 248.484L46.625 251.156V251.25H52.0156V252.5H44.6719ZM54.0625 252.5L54.0469 251.469L57.9062 247.406C59.25 245.984 59.8906 245.219 59.8906 244.172C59.8906 243.016 58.9062 242.25 57.6406 242.25C56.2969 242.25 55.4375 243.109 55.4375 244.375H54.1094C54.0938 242.375 55.6406 241.031 57.6875 241.031C59.7344 241.031 61.2031 242.406 61.2031 244.172C61.2031 245.438 60.6094 246.422 58.6094 248.484L56.0156 251.156V251.25H61.4062V252.5H54.0625Z" fill="#4A5660"/>
<path d="M104 248C104 255.732 97.732 262 90 262C82.268 262 76 255.732 76 248C76 240.268 82.268 234 90 234C97.732 234 104 240.268 104 248Z" fill="#3F35FF"/>
<path d="M120.5 252.5L120.484 251.469L124.344 247.406C125.688 245.984 126.328 245.219 126.328 244.172C126.328 243.016 125.344 242.25 124.078 242.25C122.734 242.25 121.875 243.109 121.875 244.375H120.547C120.531 242.375 122.078 241.031 124.125 241.031C126.172 241.031 127.641 242.406 127.641 244.172C127.641 245.438 127.047 246.422 125.047 248.484L122.453 251.156V251.25H127.844V252.5H120.5ZM129.359 250.188V249.031L134.453 241.188H136.188V248.953H137.766V250.188H136.188V252.5H134.844V250.188H129.359ZM130.875 248.953H134.844V242.969H134.703L130.875 248.859V248.953Z" fill="#4A5660"/>
<path d="M158.594 252.5L158.578 251.469L162.438 247.406C163.781 245.984 164.422 245.219 164.422 244.172C164.422 243.016 163.438 242.25 162.172 242.25C160.828 242.25 159.969 243.109 159.969 244.375H158.641C158.625 242.375 160.172 241.031 162.219 241.031C164.266 241.031 165.734 242.406 165.734 244.172C165.734 245.438 165.141 246.422 163.141 248.484L160.547 251.156V251.25H165.938V252.5H158.594ZM171.672 252.656C169.625 252.656 168.078 251.391 168 249.656H169.359C169.469 250.672 170.453 251.422 171.672 251.422C173.141 251.422 174.203 250.344 174.203 248.922C174.203 247.453 173.094 246.375 171.578 246.359C170.625 246.344 169.891 246.641 169.469 247.375H168.109L168.906 241.188H175.031V242.438H170.078L169.656 245.75H169.766C170.266 245.359 171.031 245.094 171.828 245.094C173.984 245.094 175.578 246.688 175.578 248.891C175.578 251.078 173.922 252.656 171.672 252.656Z" fill="#4A5660"/>
<path d="M196.461 252.5L196.445 251.469L200.305 247.406C201.648 245.984 202.289 245.219 202.289 244.172C202.289 243.016 201.305 242.25 200.039 242.25C198.695 242.25 197.836 243.109 197.836 244.375H196.508C196.492 242.375 198.039 241.031 200.086 241.031C202.133 241.031 203.602 242.406 203.602 244.172C203.602 245.438 203.008 246.422 201.008 248.484L198.414 251.156V251.25H203.805V252.5H196.461ZM209.789 252.656C207.82 252.625 205.664 251.469 205.664 247.281C205.664 243.281 207.305 241.031 209.961 241.031C211.945 241.031 213.336 242.25 213.633 244.031H212.242C211.977 243.031 211.227 242.281 209.961 242.281C208.102 242.281 206.992 243.875 206.992 246.594H207.133C207.789 245.656 208.82 245.094 210.039 245.094C212.055 245.094 213.727 246.656 213.727 248.844C213.727 250.969 212.164 252.672 209.789 252.656ZM209.789 251.422C211.258 251.422 212.352 250.266 212.367 248.859C212.352 247.469 211.305 246.328 209.82 246.328C208.336 246.328 207.195 247.531 207.18 248.875C207.18 250.203 208.273 251.422 209.789 251.422Z" fill="#4A5660"/>
<path d="M234.953 252.5L234.938 251.469L238.797 247.406C240.141 245.984 240.781 245.219 240.781 244.172C240.781 243.016 239.797 242.25 238.531 242.25C237.188 242.25 236.328 243.109 236.328 244.375H235C234.984 242.375 236.531 241.031 238.578 241.031C240.625 241.031 242.094 242.406 242.094 244.172C242.094 245.438 241.5 246.422 239.5 248.484L236.906 251.156V251.25H242.297V252.5H234.953ZM244.703 252.5L249.891 242.516V242.438H243.906V241.188H251.344V242.5L246.172 252.5H244.703Z" fill="#4A5660"/>
<path d="M272.516 252.5L272.5 251.469L276.359 247.406C277.703 245.984 278.344 245.219 278.344 244.172C278.344 243.016 277.359 242.25 276.094 242.25C274.75 242.25 273.891 243.109 273.891 244.375H272.562C272.547 242.375 274.094 241.031 276.141 241.031C278.188 241.031 279.656 242.406 279.656 244.172C279.656 245.438 279.062 246.422 277.062 248.484L274.469 251.156V251.25H279.859V252.5H272.516ZM285.688 252.656C283.312 252.656 281.656 251.344 281.672 249.5C281.656 248.031 282.672 246.828 283.969 246.625V246.562C282.844 246.297 282.109 245.266 282.109 244.031C282.109 242.297 283.625 241.031 285.688 241.031C287.75 241.031 289.266 242.297 289.281 244.031C289.266 245.266 288.516 246.297 287.406 246.562V246.625C288.688 246.828 289.703 248.031 289.719 249.5C289.703 251.344 288.047 252.656 285.688 252.656ZM285.688 251.422C287.312 251.422 288.312 250.609 288.312 249.422C288.312 248.172 287.203 247.25 285.688 247.25C284.172 247.25 283.047 248.172 283.078 249.422C283.047 250.609 284.062 251.422 285.688 251.422ZM285.688 246.062C286.969 246.062 287.906 245.281 287.906 244.141C287.906 243.016 287.016 242.25 285.688 242.25C284.344 242.25 283.469 243.016 283.469 244.141C283.469 245.281 284.391 246.062 285.688 246.062Z" fill="#4A5660"/>
<path d="M44.4609 290.5L44.4453 289.469L48.3047 285.406C49.6484 283.984 50.2891 283.219 50.2891 282.172C50.2891 281.016 49.3047 280.25 48.0391 280.25C46.6953 280.25 45.8359 281.109 45.8359 282.375H44.5078C44.4922 280.375 46.0391 279.031 48.0859 279.031C50.1328 279.031 51.6016 280.406 51.6016 282.172C51.6016 283.438 51.0078 284.422 49.0078 286.484L46.4141 289.156V289.25H51.8047V290.5H44.4609ZM57.6172 279.031C59.5703 279.047 61.7266 280.219 61.7266 284.391C61.7266 288.406 60.0859 290.656 57.4297 290.656C55.4453 290.656 54.0391 289.438 53.7578 287.641H55.1484C55.3984 288.656 56.1641 289.406 57.4297 289.406C59.2734 289.406 60.3984 287.812 60.4141 285.062H60.2578C59.6016 286 58.5703 286.562 57.3672 286.562C55.3359 286.562 53.6641 285.016 53.6641 282.828C53.6641 280.719 55.2109 279.016 57.6172 279.031ZM57.6172 280.266C56.1328 280.266 55.0234 281.422 55.0391 282.812C55.0391 284.219 56.0859 285.328 57.5703 285.328C59.0391 285.328 60.1953 284.109 60.1953 282.781C60.1953 281.484 59.1172 280.266 57.6172 280.266Z" fill="#4A5660"/>
<path d="M86.2656 290.656C84.0156 290.656 82.4062 289.453 82.3281 287.656H83.75C83.8281 288.734 84.9062 289.406 86.25 289.406C87.7344 289.406 88.8281 288.594 88.8281 287.422C88.8281 286.188 87.8438 285.312 86.0781 285.312H85.1562V284.078H86.0781C87.4531 284.078 88.4062 283.312 88.4062 282.141C88.4062 281.016 87.5781 280.25 86.2969 280.25C85.0938 280.25 83.9844 280.922 83.9219 282.031H82.5625C82.6406 280.234 84.2969 279.031 86.3125 279.031C88.4688 279.031 89.7812 280.438 89.7656 282.062C89.7812 283.344 89.0312 284.297 87.8438 284.625V284.703C89.3125 284.938 90.2188 285.984 90.2031 287.422C90.2188 289.281 88.5156 290.656 86.2656 290.656ZM95.9375 290.656C93.4219 290.656 91.9844 288.547 91.9844 284.844C91.9844 281.172 93.4531 279.031 95.9375 279.031C98.4219 279.031 99.8906 281.172 99.8906 284.844C99.8906 288.547 98.4375 290.656 95.9375 290.656ZM95.9375 289.406C97.5625 289.406 98.5156 287.766 98.5156 284.844C98.5156 281.922 97.5625 280.25 95.9375 280.25C94.3125 280.25 93.3438 281.922 93.3438 284.844C93.3438 287.766 94.2969 289.406 95.9375 289.406Z" fill="#4A5660"/>
<path d="M125.523 290.656C123.273 290.656 121.664 289.453 121.586 287.656H123.008C123.086 288.734 124.164 289.406 125.508 289.406C126.992 289.406 128.086 288.594 128.086 287.422C128.086 286.188 127.102 285.312 125.336 285.312H124.414V284.078H125.336C126.711 284.078 127.664 283.312 127.664 282.141C127.664 281.016 126.836 280.25 125.555 280.25C124.352 280.25 123.242 280.922 123.18 282.031H121.82C121.898 280.234 123.555 279.031 125.57 279.031C127.727 279.031 129.039 280.438 129.023 282.062C129.039 283.344 128.289 284.297 127.102 284.625V284.703C128.57 284.938 129.477 285.984 129.461 287.422C129.477 289.281 127.773 290.656 125.523 290.656ZM135.492 279.188V290.5H134.07V280.656H134.008L131.258 282.484V281.062L134.07 279.188H135.492Z" fill="#4A5660"/>
<path d="M81.4297 253L81.4141 251.969L85.2734 247.906C86.6094 246.484 87.25 245.719 87.2578 244.672C87.25 243.508 86.2812 242.758 85.0078 242.75C83.6562 242.758 82.8125 243.609 82.8047 244.875H81.4766C81.4609 242.875 83.0078 241.531 85.0547 241.531C87.1094 241.531 88.5625 242.914 88.5703 244.672C88.5625 245.938 87.9766 246.922 85.9766 248.984L83.3828 251.656V251.75H88.7734V253H81.4297ZM94.7266 253.156C92.4766 253.156 90.8594 251.953 90.7891 250.156H92.2109C92.2891 251.234 93.3594 251.906 94.7109 251.906C96.2031 251.906 97.2812 251.102 97.2891 249.922C97.2812 248.688 96.2969 247.82 94.5391 247.812H93.6172V246.578H94.5391C95.9141 246.578 96.875 245.805 96.8672 244.641C96.875 243.508 96.0469 242.758 94.7578 242.75C93.5469 242.758 92.4453 243.422 92.3828 244.531H91.0234C91.0938 242.734 92.7656 241.531 94.7734 241.531C96.9297 241.531 98.2422 242.945 98.2266 244.562C98.2422 245.852 97.4922 246.789 96.3047 247.125V247.203C97.7812 247.43 98.6719 248.484 98.6641 249.922C98.6719 251.781 96.9844 253.156 94.7266 253.156Z" fill="white"/>
</svg>
